▶
}


Engine: 
dot
 Format: 
svg
  Show raw output Download  
https://dreampuf.github.io/GraphvizOnline/?engine=dot&compressed=CYSw5gTghgDgFgUgEwAYDqBTKA3DA1EAZwFcoAbAWVmRQQHYAhBFAEWYEEavUboA7ANagICAMwsAKk1FNWHbrR6oAZgHs%2BAFz5QAthjFskSABIYyuDSADGUZEjGy2KTnOcL3SAGLJvqAOJkqgBG5DR8qsD6qIQaAJ5k%2Bq6cSoqp4ZFcAKwMMfH64sogZAnAyADCNGqa2noGdqbmGJY2duWV6hqEIABe%2BSwAjLSZbDLMTi7jHqk%2BM6hlqhBRKDoRxAmEY-IpCgDKqmswECCaU1k5cLB9qtihSBUqRWRWqoEi4nZk4HAaQWTEUfY7jQyFAgmY6kY9gcjicjAhhg5Nm5tikylANHAMMBoGRTjxsoQLjArjdcUCHsVnq8IUhPmBvpAMBg%2BK1ySgQWDce8jGiMVica0EaMkniUAAFCCqAAesVFcoJRJJt3uKEKlJeCxpdO%2BsTMgQA7qyVRzwdykBLpbK4ULHFtpikADKqVQ6OUo%2B1Dc6XAzXZWVR5UzVm7UaRlWwHG0GmwxIJ0uwUjW3Ij00eZ8GIgDTESzqM6E73iX1klVqp4at4xkPPAVwtkmrkxtMZrM5lnWxNIiZ2vG%2BXwoACiUpgUHTIFz0WIQRWwDWiUm7poYoASgBJHYUPOKn2ktoUsvUs3DhJgF6RPiS0q1yOcmnLtcbzJlPgACkHw9H6gAlAnESKRQulF7GhPCZYAQisAQaD0KwLj4IgdA2f8U1QCgmigECsXAyDtgVAsWFAXR1EvEsA3LGkMSIDQEiNYEowbOxUI0Wx%2B3sAAOWgAE5%2BgwsCoAgn9hXnZCBylDQMAgbQyHYYhQA0Tc8IIlY%2BGI-11QPSsvg0KxYhHGjUHrGlBzEiTbmcGTMwEpMu2THtZhQTwoCKBAWIQdiEC4wgoGUOdu3dB0AHkygAaRYfy0AAOXk4kDExKUoBPNsSLUoMY08sglL09k6JpALgtCiL4SfZ8HKcly3I8ryMG-dtf0mJDbK8Gh%2BxWVtTK6MBJMqA0aGfRZgG-er3ShMhDmOOTUAAWjEfsuEYVN0UxbFTItGUaDjV0eDoQxPUDCs%2Bt3FBiT4fUQGADEDH6AA6TIDoMs0aAwFqx06pR7BtTsPoAxQgNQfsYEox7rBodqXtVbrUGfX5-gGoSpl5RaaxQKbRBm1AVqtYS3RTbJdoMKGohVI6TrOxBxCum662y%2B7UAwf6YkBqxuDejtBo9dGseR1GUHWrHeZwhhcfEfGDqJ07zrJ67bqpmMHrpsSdCB174RZ2G-OdDbMZSTnU3UZts2e%2BUBbIoW-gJmhRZJi7Jcpm9qZQWmAYVxmlfev9VeQn6UHChYdHREBcGB8BQeUcGUGfRlmRh3yPSbSwWwNybptmphUGG0bYRQeH%2BWWyVVtQHnNu2%2BEjfUiPEvN5lifFgZrevaNWRQcIIF9ywA5dlXo4UAvNZ77XNpT8Vc4xtOYXG2gtr5nvJ%2BLwWWDLkXK7F0ma4puv6NrRufb9tvFGZ2r5FZjxPZ4rDgWdGANghmBiAgGBqLZYAoEJLEo5shc5tT-YRtH%2Ba%2BSWslB6Wh1umOO%2Btxzc3VrNbafcUCMXQqBU%2B%2BIS4pWvrfe%2BKpcjUXEI-Z%2BKlUAW2rldCMtFbYxm8phPi2E96CU7ikOBJ9KE0BgfQAeI8xq-wRjnIBcxdagNbGtSBhcziz1QXfM20Q4hYPwk-RaC9jpLyttQqyn1NaeyMuJUGUBzJj0CKoC%2BPUgiSn1OXVAwBVAaDEv1FRpwP4oDYRnLO-9FxD2AXrfh%2BdBHj2gUnX6okNHkGkrJYRxsWCGNUMYg6mC%2BhmIsViORVdl5EKlqQuwWigk1RoW-D06iTJSW0Uwnx49WFf3TmPRxiN2Y8JAZmMBbYIHxiEUg2eYSIlsiiQYGJlj4kKIlkoj6h8UTH0criMqnF%2BieW8jQZ4fA%2BAYCsK2S%2BYdH4QGwigfabIginlfskTGtj7FlIWtnABlTM68Jqe4%2BpGt6DeJRmtQKIUwqRSaSE5ZAh1mE0XpbcQSBLqKDXjSZQwyJkAmVvvNwAz7RqKHCOLo4DpmzPmc9RZz4FgjjAOIlAODFrbNFHedcBTbkeIaTtEJqK%2BDosiZI6JMi4lsgIYky6xD9LSzsBgaFH42x9IhQI4lBKuZ4o3M89SZKKVtKpR0mleDDqfMIYy5J9cjBsvfLCzloLMnWR2Q1Ps8xFhQVWPfFAVg-j0xENyicQRICwEQKgI1xATUAH1qxLBYdYr6Uw7qNgWEsCg%2BqMCX3sOq6eKR2niElMQZScTA1uq%2BrPOwvxGFwijVPIaJSf5JqDZnQ5Tj03RrZi4nNybUg8wLZPWO5yDYlu2BPN2tDIV2QYfxG1xrjKuo9CQC10B4BTObeJe15DeKNqKa2yeHq7ANtWahGCI54L%2BrBZq3NCgQ0sDDRG0olbC2xqMKI%2B%2BAblELvdPQhBjD11YxyZJQJFkT1CJrVko%2B9bhnOTYmM4F3a7UtrNSgdtlqu1Nrfb24FcRk7Dv3VlFJRgSojKfe5foOxKo0B9TOHdc6M3A3FaG-Yq7kMgYUJupAaUMqJr3YWru9z8qRSvV4-p7s72NV8cqhOhqe2muo8Gyc37rWMb-RAe1SqYUMZdR%2B0Uo6jBvj4%2BAhDs5WgUdFEuldkQ11EYzbho8GATxkDPBeKTinsNo1XPi6T1a6osbrbR7mqnmSXk4ya4DqQv2do47ah1x4LNAcE19YTSAdhB1Mg6czyktM2axrJjD8msPEZSLhy14YwsZt8%2Bi5S-Qop9Dvo5TQbLxr-Pup4Ti3gOLeHYBTFAS5aW0G5AOJ66hbhcuM1jOLFnASenzNFcQKWxrpflevew2X3K5fywANhoAwU2XAyt-Udorartbat%2BeAKIJLBhWtpdEh1mkCBut5Z6wgdgHEaB%2BEWMyEb21vbN23iC12NXc11eUgAFnmy1kEbXls2wVV1nLm32BzbRjfMRPUsUv0OzQFcaXcnASPY2ybt6QNXeAIV4uTXksPaWxlkhL21tvY2%2BwW7qAGBGLqc%2BTp-2eCjb8SD1AF7xoQ-neFsz8XgADaQfDhbiOxJPcyzLdbuXbsMAHiwKAKyaDFcs5DLZAPUAQZfRk7T1Pod0DuywRbLPkfMrA69zbGPZeoH8vwUVSzJXVVK9tUTHLLKBevZMLaQA
<svg xmlns="http://www.w3.org/2000/svg" xmlns:xlink="http://www.w3.org/1999/xlink" width="1747pt" height="738pt" viewBox="0.00 0.00 1747.00 737.91">
<g id="graph0" class="graph" transform="scale(1 1) rotate(0) translate(4 733.91)">
<title>WeaveVisualMap</title>
<polygon fill="white" stroke="none" points="-4,4 -4,-733.91 1743,-733.91 1743,4 -4,4"/>
<g id="clust9" class="cluster">
<title>cluster_core</title>
<path fill="none" stroke="black" d="M238,-165.28C238,-165.28 591,-165.28 591,-165.28 597,-165.28 603,-171.28 603,-177.28 603,-177.28 603,-709.91 603,-709.91 603,-715.91 597,-721.91 591,-721.91 591,-721.91 238,-721.91 238,-721.91 232,-721.91 226,-715.91 226,-709.91 226,-709.91 226,-177.28 226,-177.28 226,-171.28 232,-165.28 238,-165.28"/>
<text text-anchor="middle" x="414.5" y="-705.31" font-family="Helvetica,sans-Serif" font-size="14.00">Core Modules</text>
</g>
<g id="clust10" class="cluster">
<title>cluster_feedback</title>
<path fill="none" stroke="purple" d="M623,-395.11C623,-395.11 920,-395.11 920,-395.11 926,-395.11 932,-401.11 932,-407.11 932,-407.11 932,-484.71 932,-484.71 932,-490.71 926,-496.71 920,-496.71 920,-496.71 623,-496.71 623,-496.71 617,-496.71 611,-490.71 611,-484.71 611,-484.71 611,-407.11 611,-407.11 611,-401.11 617,-395.11 623,-395.11"/>
<text text-anchor="middle" x="771.5" y="-480.11" font-family="Helvetica,sans-Serif" font-size="14.00">Feedback Mechanisms</text>
</g>
<g id="clust11" class="cluster">
<title>cluster_safety</title>
<path fill="none" stroke="salmon" d="M256,-8C256,-8 370,-8 370,-8 376,-8 382,-14 382,-20 382,-20 382,-113.86 382,-113.86 382,-119.86 376,-125.86 370,-125.86 370,-125.86 256,-125.86 256,-125.86 250,-125.86 244,-119.86 244,-113.86 244,-113.86 244,-20 244,-20 244,-14 250,-8 256,-8"/>
<text text-anchor="middle" x="313" y="-109.26" font-family="Helvetica,sans-Serif" font-size="14.00">Fail‑Safe Module</text>
</g>
<g id="clust12" class="cluster">
<title>cluster_expansion</title>
<path fill="none" stroke="palegoldenrod" d="M99,-160.66C99,-160.66 206,-160.66 206,-160.66 212,-160.66 218,-166.66 218,-172.66 218,-172.66 218,-259.51 218,-259.51 218,-265.51 212,-271.51 206,-271.51 206,-271.51 99,-271.51 99,-271.51 93,-271.51 87,-265.51 87,-259.51 87,-259.51 87,-172.66 87,-172.66 87,-166.66 93,-160.66 99,-160.66"/>
<text text-anchor="middle" x="152.5" y="-254.91" font-family="Helvetica,sans-Serif" font-size="14.00">Expansion Module</text>
</g>
<g id="clust13" class="cluster">
<title>cluster_legend</title>
<path fill="none" stroke="gray" d="M623,-620.31C623,-620.31 1719,-620.31 1719,-620.31 1725,-620.31 1731,-626.31 1731,-632.31 1731,-632.31 1731,-709.91 1731,-709.91 1731,-715.91 1725,-721.91 1719,-721.91 1719,-721.91 623,-721.91 623,-721.91 617,-721.91 611,-715.91 611,-709.91 611,-709.91 611,-632.31 611,-632.31 611,-626.31 617,-620.31 623,-620.31"/>
<text text-anchor="middle" x="1171" y="-705.31" font-family="Helvetica,sans-Serif" font-size="14.00">Signal Legend</text>
</g>
<!-- Soulprint -->
<g id="node1" class="node">
<title>Soulprint</title>
<ellipse fill="lightblue" stroke="black" cx="547" cy="-646.31" rx="33.35" ry="18"/>
<text text-anchor="middle" x="547" y="-643.31" font-family="Helvetica,sans-Serif" font-size="10.00">Soulprint</text>
</g>
<!-- Cathedral -->
<g id="node2" class="node">
<title>Cathedral</title>
<ellipse fill="lightgreen" stroke="black" cx="559" cy="-557.51" rx="35.7" ry="18"/>
<text text-anchor="middle" x="559" y="-554.51" font-family="Helvetica,sans-Serif" font-size="10.00">Cathedral</text>
</g>
<!-- Soulprint&#45;&gt;Cathedral -->
<g id="edge1" class="edge">
<title>Soulprint-&gt;Cathedral</title>
<path fill="none" stroke="red" stroke-width="1.5" d="M549.37,-628.16C550.95,-616.7 553.08,-601.34 554.93,-587.95"/>
<polygon fill="red" stroke="red" stroke-width="1.5" points="558.38,-588.56 556.28,-578.17 551.45,-587.6 558.38,-588.56"/>
<text text-anchor="middle" x="585.57" y="-597.71" font-family="Times,serif" font-size="14.00"> emotional </text>
</g>
<!-- Proxy -->
<g id="node3" class="node">
<title>Proxy</title>
<ellipse fill="lightyellow" stroke="black" cx="444" cy="-421.11" rx="27" ry="18"/>
<text text-anchor="middle" x="444" y="-418.11" font-family="Helvetica,sans-Serif" font-size="10.00">Proxy</text>
</g>
<!-- Soulprint&#45;&gt;Proxy -->
<g id="edge2" class="edge">
<title>Soulprint-&gt;Proxy</title>
<path fill="none" stroke="red" stroke-width="1.5" d="M518.23,-636.72C490.63,-626.81 450.36,-607.62 431.01,-575.51 407.77,-536.94 420.74,-482.7 432.33,-450.12"/>
<polygon fill="red" stroke="red" stroke-width="1.5" points="435.56,-451.48 435.82,-440.89 429.01,-449.01 435.56,-451.48"/>
<text text-anchor="middle" x="462.51" y="-553.31" font-family="Times,serif" font-size="14.00"> emotional </text>
</g>
<!-- Loom -->
<g id="node4" class="node">
<title>Loom</title>
<ellipse fill="lightgrey" stroke="black" cx="346" cy="-332.31" rx="27" ry="18"/>
<text text-anchor="middle" x="346" y="-329.31" font-family="Helvetica,sans-Serif" font-size="10.00">Loom</text>
</g>
<!-- Soulprint&#45;&gt;Loom -->
<g id="edge3" class="edge">
<title>Soulprint-&gt;Loom</title>
<path fill="none" stroke="red" stroke-width="1.5" d="M514.22,-642.62C462.24,-637.91 363.65,-627.05 333,-610.31 286.38,-584.85 272.05,-571.1 253.01,-521.51 229.15,-459.36 286.69,-390.08 321.61,-355.49"/>
<polygon fill="red" stroke="red" stroke-width="1.5" points="323.94,-358.11 328.72,-348.65 319.09,-353.06 323.94,-358.11"/>
<text text-anchor="middle" x="284.51" y="-508.91" font-family="Times,serif" font-size="14.00"> emotional </text>
</g>
<!-- MetaFeedback -->
<g id="node7" class="node">
<title>MetaFeedback</title>
<polygon fill="thistle" stroke="black" points="696,-439.11 619.05,-421.11 696,-403.11 772.95,-421.11 696,-439.11"/>
<text text-anchor="middle" x="696" y="-418.11" font-family="Helvetica,sans-Serif" font-size="10.00">Meta‑Feedback</text>
</g>
<!-- Soulprint&#45;&gt;MetaFeedback -->
<g id="edge13" class="edge">
<title>Soulprint-&gt;MetaFeedback</title>
<path fill="none" stroke="purple" stroke-width="1.2" stroke-dasharray="5,2" d="M572.29,-634.05C586.72,-627.46 605.06,-618.78 621,-610.31 629.55,-605.77 766.2,-529.92 771,-521.51 788.07,-491.57 754.79,-460.37 727.26,-441.09"/>
<polygon fill="purple" stroke="purple" stroke-width="1.2" points="729.24,-438.21 718.99,-435.56 725.35,-444.03 729.24,-438.21"/>
<text text-anchor="middle" x="769.22" y="-553.31" font-family="Times,serif" font-size="14.00">feedback</text>
</g>
<!-- ExternalAudit -->
<g id="node8" class="node">
<title>ExternalAudit</title>
<polygon fill="lightcyan" stroke="black" points="857,-439.11 790.45,-421.11 857,-403.11 923.55,-421.11 857,-439.11"/>
<text text-anchor="middle" x="857" y="-418.11" font-family="Helvetica,sans-Serif" font-size="10.00">External Audit</text>
</g>
<!-- Soulprint&#45;&gt;ExternalAudit -->
<g id="edge23" class="edge">
<title>Soulprint-&gt;ExternalAudit</title>
<path fill="none" stroke="brown" stroke-width="1.2" stroke-dasharray="1,5" d="M570.62,-633.31C581.43,-628.38 594.57,-623.18 607,-620.31 643.87,-611.8 742.15,-625.05 777,-610.31 837.8,-584.59 852.48,-496.94 855.97,-450.9"/>
<polygon fill="brown" stroke="brown" stroke-width="1.2" points="859.44,-451.37 856.56,-441.17 852.46,-450.94 859.44,-451.37"/>
<text text-anchor="middle" x="851.23" y="-553.31" font-family="Times,serif" font-size="14.00">audit</text>
</g>
<!-- LOCKDOWN -->
<g id="node9" class="node">
<title>LOCKDOWN</title>
<polygon fill="salmon" stroke="black" points="374.15,-42.13 343.57,-68.26 282.43,-68.26 251.85,-42.13 282.43,-16 343.57,-16 374.15,-42.13"/>
<text text-anchor="middle" x="313" y="-45.13" font-family="Helvetica,sans-Serif" font-size="10.00">LOCKDOWN</text>
<text text-anchor="middle" x="313" y="-33.13" font-family="Helvetica,sans-Serif" font-size="10.00">(Fail‑safe)</text>
</g>
<!-- Soulprint&#45;&gt;LOCKDOWN -->
<g id="edge33" class="edge">
<title>Soulprint-&gt;LOCKDOWN</title>
<path fill="none" stroke="darkred" stroke-width="2" d="M570.6,-633.21C581.4,-628.27 594.55,-623.08 607,-620.31 709.05,-597.63 740.49,-635.29 842,-610.31 894.47,-597.4 952,-612.55 952,-558.51 952,-558.51 952,-558.51 952,-190.28 952,-75.02 552.19,-50.03 385.07,-44.62"/>
<polygon fill="darkred" stroke="darkred" stroke-width="2" points="385.38,-41.13 375.28,-44.32 385.17,-48.13 385.38,-41.13"/>
<text text-anchor="middle" x="972.6" y="-372.51" font-family="Times,serif" font-size="14.00">failsafe</text>
</g>
<!-- Cathedral&#45;&gt;Proxy -->
<g id="edge4" class="edge">
<title>Cathedral-&gt;Proxy</title>
<path fill="none" stroke="blue" stroke-width="1.5" d="M525.21,-551.13C493.87,-545.37 450.57,-535.19 440.35,-521.51 425.31,-501.39 428.54,-472.05 434.13,-450.45"/>
<polygon fill="blue" stroke="blue" stroke-width="1.5" points="437.47,-451.52 436.94,-440.94 430.75,-449.55 437.47,-451.52"/>
<text text-anchor="middle" x="470.68" y="-508.91" font-family="Times,serif" font-size="14.00"> epistemic </text>
</g>
<!-- Cathedral&#45;&gt;MetaFeedback -->
<g id="edge14" class="edge">
<title>Cathedral-&gt;MetaFeedback</title>
<path fill="none" stroke="purple" stroke-width="1.2" stroke-dasharray="5,2" d="M584.97,-544.88C596.71,-538.89 610.31,-530.87 621,-521.51 645.74,-499.85 667.56,-468.84 681.19,-447.23"/>
<polygon fill="purple" stroke="purple" stroke-width="1.2" points="683.99,-449.36 686.25,-439.01 678.03,-445.69 683.99,-449.36"/>
<text text-anchor="middle" x="663.19" y="-508.91" font-family="Times,serif" font-size="14.00">feedback</text>
</g>
<!-- Cathedral&#45;&gt;ExternalAudit -->
<g id="edge24" class="edge">
<title>Cathedral-&gt;ExternalAudit</title>
<path fill="none" stroke="brown" stroke-width="1.2" stroke-dasharray="1,5" d="M594.24,-553.91C640.7,-549.04 723.39,-535.25 782,-496.71 803.55,-482.54 824.03,-461.47 838.12,-445.33"/>
<polygon fill="brown" stroke="brown" stroke-width="1.2" points="840.65,-447.75 844.47,-437.87 835.32,-443.22 840.65,-447.75"/>
<text text-anchor="middle" x="780.05" y="-508.91" font-family="Times,serif" font-size="14.00">audit</text>
</g>
<!-- Cathedral&#45;&gt;LOCKDOWN -->
<g id="edge34" class="edge">
<title>Cathedral-&gt;LOCKDOWN</title>
<path fill="none" stroke="darkred" stroke-width="2" d="M529.49,-547C519.58,-544.15 508.4,-541.31 498,-539.51 386.92,-520.28 354.81,-547.02 245,-521.51 130.54,-494.92 0,-539.62 0,-422.11 0,-422.11 0,-422.11 0,-190.28 0,-84.01 149.6,-54.35 241.95,-46.16"/>
<polygon fill="darkred" stroke="darkred" stroke-width="2" points="242.16,-49.65 251.84,-45.36 241.59,-42.68 242.16,-49.65"/>
<text text-anchor="middle" x="20.6" y="-328.11" font-family="Times,serif" font-size="14.00">failsafe</text>
</g>
<!-- Proxy&#45;&gt;Loom -->
<g id="edge5" class="edge">
<title>Proxy-&gt;Loom</title>
<path fill="none" stroke="blue" stroke-width="1.5" d="M416.96,-418.37C394.31,-415.33 363.22,-407.11 347.35,-385.11 342.66,-378.6 341.07,-370.33 341,-362.32"/>
<polygon fill="blue" stroke="blue" stroke-width="1.5" points="344.47,-362.74 341.73,-352.51 337.49,-362.22 344.47,-362.74"/>
<text text-anchor="middle" x="377.68" y="-372.51" font-family="Times,serif" font-size="14.00"> epistemic </text>
</g>
<!-- Proxy&#45;&gt;MetaFeedback -->
<g id="edge15" class="edge">
<title>Proxy-&gt;MetaFeedback</title>
<path fill="none" stroke="purple" stroke-width="1.2" stroke-dasharray="5,2" d="M448.37,-439.28C453.74,-457.22 464.73,-483.79 485,-496.71 489.9,-499.84 519.46,-498.33 555.26,-497.91 578.26,-497.64 585.5,-504.89 607,-496.71 634.59,-486.21 659.59,-463.19 676.02,-445.3"/>
<polygon fill="purple" stroke="purple" stroke-width="1.2" points="678.59,-447.67 682.59,-437.86 673.35,-443.04 678.59,-447.67"/>
<text text-anchor="middle" x="530" y="-508.91" font-family="Times,serif" font-size="14.00">feedback</text>
</g>
<!-- Proxy&#45;&gt;ExternalAudit -->
<g id="edge25" class="edge">
<title>Proxy-&gt;ExternalAudit</title>
<path fill="none" stroke="brown" stroke-width="1.2" stroke-dasharray="1,5" d="M448.16,-439.13C453.39,-457.23 464.32,-484.17 485,-496.71 522.24,-519.28 704.53,-529.26 782,-496.71 806.45,-486.44 827.05,-463.94 840.43,-446.15"/>
<polygon fill="brown" stroke="brown" stroke-width="1.2" points="843.06,-448.49 846.05,-438.33 837.37,-444.41 843.06,-448.49"/>
<text text-anchor="middle" x="574" y="-508.91" font-family="Times,serif" font-size="14.00">audit</text>
</g>
<!-- Proxy&#45;&gt;LOCKDOWN -->
<g id="edge35" class="edge">
<title>Proxy-&gt;LOCKDOWN</title>
<path fill="none" stroke="darkred" stroke-width="2" d="M416.65,-420.14C342.04,-418.49 137.02,-401.91 83,-271.51 64.14,-225.99 57.28,-202.68 83,-160.66 119.37,-101.22 196.34,-70.64 251.21,-55.78"/>
<polygon fill="darkred" stroke="darkred" stroke-width="2" points="251.86,-59.22 260.67,-53.34 250.11,-52.45 251.86,-59.22"/>
<text text-anchor="middle" x="116.23" y="-283.71" font-family="Times,serif" font-size="14.00">failsafe</text>
</g>
<!-- Loom&#45;&gt;Soulprint -->
<g id="edge11" class="edge">
<title>Loom-&gt;Soulprint</title>
<path fill="none" stroke="green" stroke-width="1.5" d="M340.73,-350.23C339.21,-355.92 337.76,-362.34 337,-368.31 336.06,-375.72 336.64,-377.65 337,-385.11 339.95,-445.95 323.79,-466.65 350.24,-521.51 374.89,-572.63 393.48,-580.87 442,-610.31 461.05,-621.87 484.38,-630.13 504.2,-635.72"/>
<polygon fill="green" stroke="green" stroke-width="1.5" points="503.27,-639.1 513.83,-638.28 505.07,-632.33 503.27,-639.1"/>
<text text-anchor="middle" x="382.12" y="-508.91" font-family="Times,serif" font-size="14.00"> normative </text>
</g>
<!-- Loom&#45;&gt;Proxy -->
<g id="edge12" class="edge">
<title>Loom-&gt;Proxy</title>
<path fill="none" stroke="green" stroke-width="1.5" d="M368.23,-342.82C380.8,-348.91 396.3,-357.66 408,-368.31 415.94,-375.55 423.09,-384.84 428.88,-393.56"/>
<polygon fill="green" stroke="green" stroke-width="1.5" points="425.76,-395.17 434.02,-401.8 431.69,-391.46 425.76,-395.17"/>
<text text-anchor="middle" x="454.77" y="-372.51" font-family="Times,serif" font-size="14.00"> normative </text>
</g>
<!-- Constitution -->
<g id="node5" class="node">
<title>Constitution</title>
<ellipse fill="lightcoral" stroke="black" cx="537" cy="-191.28" rx="41.38" ry="18"/>
<text text-anchor="middle" x="537" y="-188.28" font-family="Helvetica,sans-Serif" font-size="10.00">Constitution</text>
</g>
<!-- Loom&#45;&gt;Constitution -->
<g id="edge6" class="edge">
<title>Loom-&gt;Constitution</title>
<path fill="none" stroke="blue" stroke-width="1.5" d="M342.11,-314.09C340.66,-303.3 340.72,-289.57 347.35,-279.51 351.82,-272.73 443.01,-232.68 497.29,-209.27"/>
<polygon fill="blue" stroke="blue" stroke-width="1.5" points="498.38,-212.62 506.18,-205.45 495.61,-206.19 498.38,-212.62"/>
<text text-anchor="middle" x="377.68" y="-283.71" font-family="Times,serif" font-size="14.00"> epistemic </text>
</g>
<!-- PRISM -->
<g id="node6" class="node">
<title>PRISM</title>
<ellipse fill="palegoldenrod" stroke="black" cx="161" cy="-191.28" rx="49.04" ry="22.63"/>
<text text-anchor="middle" x="161" y="-194.28" font-family="Helvetica,sans-Serif" font-size="10.00">PRISM</text>
<text text-anchor="middle" x="161" y="-182.28" font-family="Helvetica,sans-Serif" font-size="10.00">(Expansion)</text>
</g>
<!-- Loom&#45;&gt;PRISM -->
<g id="edge39" class="edge">
<title>Loom-&gt;PRISM</title>
<path fill="none" stroke="orange" stroke-width="1.2" stroke-dasharray="5,2" d="M319.86,-326.73C297.69,-321.9 265.83,-312.66 242.23,-296.31 214.96,-277.41 192.54,-246.6 178.22,-223.41"/>
<polygon fill="orange" stroke="orange" stroke-width="1.2" points="181.28,-221.71 173.15,-214.92 175.27,-225.3 181.28,-221.71"/>
<text text-anchor="middle" x="270.62" y="-283.71" font-family="Times,serif" font-size="14.00">expansion</text>
</g>
<!-- Loom&#45;&gt;MetaFeedback -->
<g id="edge16" class="edge">
<title>Loom-&gt;MetaFeedback</title>
<path fill="none" stroke="purple" stroke-width="1.2" stroke-dasharray="5,2" d="M371.19,-339.72C385.92,-343.28 404.92,-347.53 422,-350.31 498.73,-362.82 523.29,-340.77 596,-368.31 608,-372.86 608.38,-378.68 619.48,-385.11 631.7,-392.19 645.61,-398.91 658.18,-404.54"/>
<polygon fill="purple" stroke="purple" stroke-width="1.2" points="656.58,-407.66 667.14,-408.46 659.38,-401.25 656.58,-407.66"/>
<text text-anchor="middle" x="644.74" y="-372.51" font-family="Times,serif" font-size="14.00">feedback</text>
</g>
<!-- Loom&#45;&gt;ExternalAudit -->
<g id="edge26" class="edge">
<title>Loom-&gt;ExternalAudit</title>
<path fill="none" stroke="brown" stroke-width="1.2" stroke-dasharray="1,5" d="M370.81,-339.87C385.57,-343.52 404.74,-347.82 422,-350.31 540.59,-367.44 573.04,-347.26 691,-368.31 732.51,-375.72 741.77,-382.49 782,-395.11 793.59,-398.75 806.13,-402.86 817.58,-406.68"/>
<polygon fill="brown" stroke="brown" stroke-width="1.2" points="816.27,-409.93 826.86,-409.8 818.5,-403.3 816.27,-409.93"/>
<text text-anchor="middle" x="764.82" y="-372.51" font-family="Times,serif" font-size="14.00">audit</text>
</g>
<!-- Loom&#45;&gt;LOCKDOWN -->
<g id="edge36" class="edge">
<title>Loom-&gt;LOCKDOWN</title>
<path fill="none" stroke="darkred" stroke-width="2" d="M341.66,-314.31C340.33,-308.61 338.96,-302.22 338,-296.31 325.66,-220.6 318.56,-131.09 315.27,-81.35"/>
<polygon fill="darkred" stroke="darkred" stroke-width="2" points="318.76,-81.2 314.63,-71.44 311.78,-81.64 318.76,-81.2"/>
<text text-anchor="middle" x="354.56" y="-187.08" font-family="Times,serif" font-size="14.00">failsafe</text>
</g>
<!-- Constitution&#45;&gt;Soulprint -->
<g id="edge7" class="edge">
<title>Constitution-&gt;Soulprint</title>
<path fill="none" stroke="green" stroke-width="1.5" d="M535.85,-209.63C533.42,-244.89 527.55,-323.81 522,-350.31 517.7,-370.83 510.87,-374.46 507.24,-395.11 491.49,-484.76 500.89,-487.65 504,-521.51 506.23,-545.82 506.5,-552.28 514,-575.51 518.67,-589.96 525.67,-605.3 532.02,-617.9"/>
<polygon fill="green" stroke="green" stroke-width="1.5" points="528.82,-619.33 536.54,-626.59 535.03,-616.1 528.82,-619.33"/>
<text text-anchor="middle" x="539.12" y="-416.91" font-family="Times,serif" font-size="14.00"> normative </text>
</g>
<!-- Constitution&#45;&gt;Cathedral -->
<g id="edge8" class="edge">
<title>Constitution-&gt;Cathedral</title>
<path fill="none" stroke="green" stroke-width="1.5" d="M537.43,-209.43C537.95,-238.51 538.08,-299.34 532,-350.31 531.03,-358.43 529.08,-360.18 528.24,-368.31 527.47,-375.74 523.55,-379.3 528.24,-385.11 541.6,-401.63 560.61,-379.47 575,-395.11 608.24,-431.26 585.88,-455.7 589,-504.71 589.47,-512.16 591.59,-514.51 589,-521.51 587.68,-525.07 585.82,-528.52 583.66,-531.77"/>
<polygon fill="green" stroke="green" stroke-width="1.5" points="580.93,-529.58 577.48,-539.6 586.42,-533.92 580.93,-529.58"/>
<text text-anchor="middle" x="560.12" y="-372.51" font-family="Times,serif" font-size="14.00"> normative </text>
</g>
<!-- Constitution&#45;&gt;Proxy -->
<g id="edge9" class="edge">
<title>Constitution-&gt;Proxy</title>
<path fill="none" stroke="green" stroke-width="1.5" d="M534.02,-209.44C529.32,-231.91 518.22,-271.36 495,-296.31 482.61,-309.63 467.87,-298.88 458.24,-314.31 449.77,-327.89 450.1,-336.54 458.24,-350.31 466.7,-364.61 482.54,-354.01 491,-368.31 494.8,-374.74 494.35,-378.44 491,-385.11 487.46,-392.15 481.77,-398.13 475.54,-403.06"/>
<polygon fill="green" stroke="green" stroke-width="1.5" points="473.69,-400.08 467.42,-408.63 477.65,-405.85 473.69,-400.08"/>
<text text-anchor="middle" x="490.12" y="-328.11" font-family="Times,serif" font-size="14.00"> normative </text>
</g>
<!-- Constitution&#45;&gt;Loom -->
<g id="edge10" class="edge">
<title>Constitution-&gt;Loom</title>
<path fill="none" stroke="green" stroke-width="1.5" d="M518.79,-207.59C488.83,-232.66 430.26,-281.2 408,-296.31 398.41,-302.82 387.54,-309.25 377.6,-314.79"/>
<polygon fill="green" stroke="green" stroke-width="1.5" points="375.99,-311.68 368.89,-319.54 379.34,-317.83 375.99,-311.68"/>
<text text-anchor="middle" x="461.98" y="-283.71" font-family="Times,serif" font-size="14.00"> normative </text>
</g>
<!-- Constitution&#45;&gt;MetaFeedback -->
<g id="edge17" class="edge">
<title>Constitution-&gt;MetaFeedback</title>
<path fill="none" stroke="purple" stroke-width="1.2" stroke-dasharray="5,2" d="M549.28,-208.79C571.69,-238.47 621.36,-302.24 669.48,-350.31 678.3,-359.12 685.18,-357.28 691,-368.31 694.71,-375.34 696.46,-383.65 697.16,-391.53"/>
<polygon fill="purple" stroke="purple" stroke-width="1.2" points="693.66,-391.63 697.47,-401.51 700.65,-391.41 693.66,-391.63"/>
<text text-anchor="middle" x="694.74" y="-328.11" font-family="Times,serif" font-size="14.00">feedback</text>
</g>
<!-- Constitution&#45;&gt;ExternalAudit -->
<g id="edge27" class="edge">
<title>Constitution-&gt;ExternalAudit</title>
<path fill="none" stroke="brown" stroke-width="1.2" stroke-dasharray="1,5" d="M576.14,-197.55C652.01,-208.61 814.67,-236.84 849,-279.51 874.71,-311.46 870.16,-361.9 863.97,-392.89"/>
<polygon fill="brown" stroke="brown" stroke-width="1.2" points="860.62,-391.82 861.88,-402.34 867.46,-393.33 860.62,-391.82"/>
<text text-anchor="middle" x="882.78" y="-328.11" font-family="Times,serif" font-size="14.00">audit</text>
</g>
<!-- Constitution&#45;&gt;LOCKDOWN -->
<g id="edge37" class="edge">
<title>Constitution-&gt;LOCKDOWN</title>
<path fill="none" stroke="darkred" stroke-width="2" d="M514.7,-175.64C478.26,-151.69 405.24,-103.72 357.78,-72.55"/>
<polygon fill="darkred" stroke="darkred" stroke-width="2" points="359.99,-69.81 349.71,-67.25 356.15,-75.66 359.99,-69.81"/>
<text text-anchor="middle" x="491.41" y="-138.06" font-family="Times,serif" font-size="14.00">failsafe</text>
</g>
<!-- PRISM&#45;&gt;Loom -->
<g id="edge38" class="edge">
<title>PRISM-&gt;Loom</title>
<path fill="none" stroke="orange" stroke-width="1.2" stroke-dasharray="5,2" d="M153.99,-214.13C148.06,-237.3 143.21,-273.6 162.23,-296.31 180.4,-318 258.96,-326.38 307.29,-329.52"/>
<polygon fill="orange" stroke="orange" stroke-width="1.2" points="306.87,-333 317.06,-330.1 307.29,-326.01 306.87,-333"/>
<text text-anchor="middle" x="190.62" y="-283.71" font-family="Times,serif" font-size="14.00">expansion</text>
</g>
<!-- MetaFeedback&#45;&gt;Soulprint -->
<g id="edge18" class="edge">
<title>MetaFeedback-&gt;Soulprint</title>
<path fill="none" stroke="purple" stroke-width="1.2" stroke-dasharray="5,2" d="M713.07,-435.6C736.57,-454.49 777.13,-488.37 787,-504.71 803.4,-531.86 815.66,-550.62 796,-575.51 742.5,-643.26 689.17,-593.84 607,-620.31 598.97,-622.9 590.51,-626.11 582.56,-629.35"/>
<polygon fill="purple" stroke="purple" stroke-width="1.2" points="581.29,-626.09 573.43,-633.2 584.01,-632.54 581.29,-626.09"/>
</g>
<!-- MetaFeedback&#45;&gt;Cathedral -->
<g id="edge19" class="edge">
<title>MetaFeedback-&gt;Cathedral</title>
<path fill="none" stroke="purple" stroke-width="1.2" stroke-dasharray="5,2" d="M682.19,-436.05C663,-455.38 627.1,-491.35 596,-521.51 592,-525.38 587.74,-529.47 583.57,-533.43"/>
<polygon fill="purple" stroke="purple" stroke-width="1.2" points="581.47,-530.6 576.61,-540.02 586.28,-535.68 581.47,-530.6"/>
</g>
<!-- MetaFeedback&#45;&gt;Proxy -->
<g id="edge20" class="edge">
<title>MetaFeedback-&gt;Proxy</title>
<path fill="none" stroke="purple" stroke-width="1.2" stroke-dasharray="5,2" d="M686.01,-436.97C670.47,-459.97 638.07,-501.63 598,-518.11 555.25,-535.69 533.47,-542.17 494,-518.11 470.03,-503.5 457.06,-473.31 450.38,-450.46"/>
<polygon fill="purple" stroke="purple" stroke-width="1.2" points="453.84,-449.84 447.9,-441.07 447.07,-451.63 453.84,-449.84"/>
</g>
<!-- MetaFeedback&#45;&gt;Loom -->
<g id="edge21" class="edge">
<title>MetaFeedback-&gt;Loom</title>
<path fill="none" stroke="purple" stroke-width="1.2" stroke-dasharray="5,2" d="M692.34,-403.66C688.77,-391.74 682.05,-376.36 670,-368.31 624.06,-337.61 476.67,-358.36 422,-350.31 408.92,-348.38 394.75,-345.45 382.23,-342.56"/>
<polygon fill="purple" stroke="purple" stroke-width="1.2" points="383.12,-339.17 372.58,-340.26 381.5,-345.98 383.12,-339.17"/>
</g>
<!-- MetaFeedback&#45;&gt;Constitution -->
<g id="edge22" class="edge">
<title>MetaFeedback-&gt;Constitution</title>
<path fill="none" stroke="purple" stroke-width="1.2" stroke-dasharray="5,2" d="M705.52,-405.22C717.84,-383.92 735.91,-344.04 720,-314.31 690.66,-259.49 624.61,-225.04 580.42,-207.22"/>
<polygon fill="purple" stroke="purple" stroke-width="1.2" points="581.7,-203.97 571.11,-203.61 579.16,-210.49 581.7,-203.97"/>
</g>
<!-- ExternalAudit&#45;&gt;Soulprint -->
<g id="edge28" class="edge">
<title>ExternalAudit-&gt;Soulprint</title>
<path fill="none" stroke="brown" stroke-width="1.2" stroke-dasharray="1,5" d="M863.66,-437.39C875.29,-466.59 895.63,-531.36 869,-575.51 851.87,-603.91 834.98,-601.53 803,-610.31 718.89,-633.42 692.07,-601.03 607,-620.31 598.45,-622.25 589.56,-625.31 581.33,-628.64"/>
<polygon fill="brown" stroke="brown" stroke-width="1.2" points="580.07,-625.37 572.28,-632.54 582.84,-631.8 580.07,-625.37"/>
</g>
<!-- ExternalAudit&#45;&gt;Cathedral -->
<g id="edge29" class="edge">
<title>ExternalAudit-&gt;Cathedral</title>
<path fill="none" stroke="brown" stroke-width="1.2" stroke-dasharray="1,5" d="M846.93,-436.58C834.02,-453.91 809.94,-482.38 782,-496.71 762.76,-506.58 754.83,-498.88 734,-504.71 714.64,-510.13 711.09,-515.21 692,-521.51 662.61,-531.22 628.87,-540.07 602.74,-546.44"/>
<polygon fill="brown" stroke="brown" stroke-width="1.2" points="601.97,-543.02 593.07,-548.76 603.61,-549.83 601.97,-543.02"/>
</g>
<!-- ExternalAudit&#45;&gt;Proxy -->
<g id="edge30" class="edge">
<title>ExternalAudit-&gt;Proxy</title>
<path fill="none" stroke="brown" stroke-width="1.2" stroke-dasharray="1,5" d="M848.83,-437.28C836.18,-460.26 809.47,-501.45 773,-518.11 744.8,-530.99 520.47,-534.25 494,-518.11 470.03,-503.5 457.06,-473.31 450.38,-450.46"/>
<polygon fill="brown" stroke="brown" stroke-width="1.2" points="453.84,-449.84 447.9,-441.07 447.07,-451.63 453.84,-449.84"/>
</g>
<!-- ExternalAudit&#45;&gt;Loom -->
<g id="edge31" class="edge">
<title>ExternalAudit-&gt;Loom</title>
<path fill="none" stroke="brown" stroke-width="1.2" stroke-dasharray="1,5" d="M842.81,-406.44C828.85,-393.97 806.29,-376.3 783,-368.31 707.02,-342.26 501.59,-361.12 422,-350.31 408.9,-348.53 394.73,-345.63 382.2,-342.73"/>
<polygon fill="brown" stroke="brown" stroke-width="1.2" points="383.1,-339.34 372.56,-340.4 381.46,-346.15 383.1,-339.34"/>
</g>
<!-- ExternalAudit&#45;&gt;Constitution -->
<g id="edge32" class="edge">
<title>ExternalAudit-&gt;Constitution</title>
<path fill="none" stroke="brown" stroke-width="1.2" stroke-dasharray="1,5" d="M845.57,-406.1C836.71,-395.45 823.97,-380.6 812,-368.31 771.21,-326.45 763.29,-312.44 715,-279.51 670.88,-249.42 614.84,-223.76 577.55,-208.21"/>
<polygon fill="brown" stroke="brown" stroke-width="1.2" points="579.34,-205.17 568.76,-204.6 576.68,-211.64 579.34,-205.17"/>
</g>
<!-- Legend1 -->
<g id="node10" class="node">
<title>Legend1</title>
<polygon fill="lightgrey" stroke="none" points="723.05,-664.31 618.95,-664.31 618.95,-628.31 723.05,-628.31 723.05,-664.31"/>
<text text-anchor="middle" x="671" y="-643.31" font-family="Helvetica,sans-Serif" font-size="10.00">🟥 Red = Emotional</text>
</g>
<!-- Legend2 -->
<g id="node11" class="node">
<title>Legend2</title>
<polygon fill="lightgrey" stroke="none" points="845.32,-664.31 740.68,-664.31 740.68,-628.31 845.32,-628.31 845.32,-664.31"/>
<text text-anchor="middle" x="793" y="-643.31" font-family="Helvetica,sans-Serif" font-size="10.00">🟦 Blue = Epistemic</text>
</g>
<!-- Legend3 -->
<g id="node12" class="node">
<title>Legend3</title>
<polygon fill="lightgrey" stroke="none" points="978.32,-664.31 863.68,-664.31 863.68,-628.31 978.32,-628.31 978.32,-664.31"/>
<text text-anchor="middle" x="921" y="-643.31" font-family="Helvetica,sans-Serif" font-size="10.00">🟩 Green = Normative</text>
</g>
<!-- Legend4 -->
<g id="node13" class="node">
<title>Legend4</title>
<polygon fill="lightgrey" stroke="none" points="1189.24,-664.31 996.76,-664.31 996.76,-628.31 1189.24,-628.31 1189.24,-664.31"/>
<text text-anchor="middle" x="1093" y="-643.31" font-family="Helvetica,sans-Serif" font-size="10.00">🟣 Purple (dashed) = Internal Feedback</text>
</g>
<!-- Legend5 -->
<g id="node14" class="node">
<title>Legend5</title>
<polygon fill="lightgrey" stroke="none" points="1376.56,-664.31 1207.44,-664.31 1207.44,-628.31 1376.56,-628.31 1376.56,-664.31"/>
<text text-anchor="middle" x="1292" y="-643.31" font-family="Helvetica,sans-Serif" font-size="10.00">🟤 Brown (dotted) = External Audit</text>
</g>
<!-- Legend6 -->
<g id="node15" class="node">
<title>Legend6</title>
<polygon fill="lightgrey" stroke="none" points="1541.44,-664.31 1394.56,-664.31 1394.56,-628.31 1541.44,-628.31 1541.44,-664.31"/>
<text text-anchor="middle" x="1468" y="-643.31" font-family="Helvetica,sans-Serif" font-size="10.00">🔻 Dark Red (bold) = Failsafe</text>
</g>
<!-- Legend7 -->
<g id="node16" class="node">
<title>Legend7</title>
<polygon fill="lightgrey" stroke="none" points="1722.79,-664.31 1559.21,-664.31 1559.21,-628.31 1722.79,-628.31 1722.79,-664.31"/>
<text text-anchor="middle" x="1641" y="-643.31" font-family="Helvetica,sans-Serif" font-size="10.00">🟧 Orange (dashed) = Expansion</text>
</g>
</g>
</svg>

